<?xml version="1.0" encoding="UTF-8" standalone="no"?>
<svg width="118px" height="24px" viewBox="0 0 118 24" version="1.1" xmlns="http://www.w3.org/2000/svg" xmlns:xlink="http://www.w3.org/1999/xlink" xmlns:sketch="http://www.bohemiancoding.com/sketch/ns">
    <!-- Generator: Sketch 3.4.4 (17249) - http://www.bohemiancoding.com/sketch -->
    <title>Artboard 1</title>
    <desc>Created with Sketch.</desc>
    <defs></defs>
    <g id="Page-1" stroke="none" stroke-width="1" fill="none" fill-rule="evenodd" sketch:type="MSPage">
        <g id="Artboard-1" sketch:type="MSArtboardGroup" fill="#757575">
            <path d="M84.1066986,0.440988836 L77.8020734,0.440988836 L77.8020734,17.9433812 L80.4368421,17.9433812 L80.4368421,11.2623604 L84.1066986,11.2623604 C87.0237639,11.2623604 89.8467305,9.19218501 89.8467305,5.8046252 C89.8467305,2.41706539 86.9296651,0.440988836 84.1066986,0.440988836 L84.1066986,0.440988836 Z M84.1066986,8.90988836 L80.3427432,8.90988836 L80.3427432,2.88755981 L84.1066986,2.88755981 C86.0827751,2.88755981 87.2119617,4.48724083 87.2119617,5.89872408 C87.2119617,7.21610845 86.0827751,8.90988836 84.1066986,8.90988836 L84.1066986,8.90988836 Z M93.8929824,17.9433812 L93.8929824,0.440988836 L91.2582137,0.440988836 L91.2582137,17.9433812 L93.8929824,17.9433812 L93.8929824,17.9433812 Z M105.655343,17.9433812 L105.655343,11.2623604 C105.655343,8.15709729 103.302871,6.3692185 100.291707,6.3692185 C98.4097289,6.3692185 96.4336523,7.21610845 95.5867623,9.09808612 L97.9392344,10.039075 C98.4097289,9.09808612 99.3507177,8.72169059 100.291707,8.72169059 C101.609091,8.72169059 103.020574,9.56858054 103.020574,10.9800638 L103.020574,11.1682616 C102.55008,10.8859649 101.514992,10.5095694 100.291707,10.5095694 C97.7510367,10.5095694 95.2103668,11.9210526 95.2103668,14.4617225 C95.2103668,16.8141946 97.2805423,18.3197767 99.5389155,18.3197767 C101.326794,18.3197767 102.267783,17.5669856 102.832376,16.6259968 L102.926475,16.6259968 L102.926475,17.9433812 L105.655343,17.9433812 L105.655343,17.9433812 Z M100.00941,15.9673046 C99.1625199,15.9673046 97.9392344,15.4968102 97.9392344,14.4617225 C97.9392344,13.1443381 99.4448166,12.5797448 100.668102,12.5797448 C101.797289,12.5797448 102.361882,12.8620415 103.020574,13.1443381 C102.926475,14.838118 101.514992,15.9673046 100.00941,15.9673046 L100.00941,15.9673046 Z M114.782935,6.74561404 L111.77177,14.3676236 L111.677671,14.3676236 L108.572408,6.74561404 L105.749442,6.74561404 L110.454386,17.3787879 L107.819617,23.3070175 L110.548485,23.3070175 L117.7,6.74561404 L114.782935,6.74561404 L114.782935,6.74561404 Z M9.24,8.19 L9.24,10.65 L15.12,10.65 C14.94,12.03 14.48,13.04 13.78,13.75 C12.92,14.61 11.58,15.55 9.24,15.55 C5.62,15.55 2.79,12.63 2.79,9.01 C2.79,5.39 5.62,2.47 9.24,2.47 C11.19,2.47 12.62,3.24 13.67,4.23 L15.4,2.5 C13.94,1.08 11.98,0 9.24,0 C4.28,0 0.11,4.04 0.11,9 C0.11,13.96 4.28,18 9.24,18 C11.92,18 13.94,17.12 15.52,15.48 C17.14,13.86 17.65,11.57 17.65,9.73 C17.65,9.16 17.61,8.63 17.52,8.19 L9.24,8.19 L9.24,8.19 Z M25,6.19 C21.79,6.19 19.17,8.63 19.17,12 C19.17,15.34 21.79,17.81 25,17.81 C28.21,17.81 30.83,15.35 30.83,12 C30.83,8.63 28.21,6.19 25,6.19 L25,6.19 Z M25,15.52 C23.24,15.52 21.72,14.07 21.72,12 C21.72,9.91 23.24,8.48 25,8.48 C26.76,8.48 28.28,9.91 28.28,12 C28.28,14.07 26.76,15.52 25,15.52 L25,15.52 Z M53.58,7.49 L53.49,7.49 C52.92,6.81 51.82,6.19 50.43,6.19 C47.53,6.19 45,8.72 45,12 C45,15.26 47.53,17.81 50.43,17.81 C51.82,17.81 52.92,17.19 53.49,16.49 L53.58,16.49 L53.58,17.3 C53.58,19.52 52.39,20.71 50.48,20.71 C48.92,20.71 47.95,19.59 47.55,18.64 L45.33,19.56 C45.97,21.1 47.66,22.99 50.48,22.99 C53.47,22.99 56,21.23 56,16.94 L56,6.49 L53.58,6.49 L53.58,7.49 L53.58,7.49 Z M50.65,15.52 C48.89,15.52 47.55,14.02 47.55,12 C47.55,9.95 48.89,8.48 50.65,8.48 C52.39,8.48 53.75,9.98 53.75,12.02 C53.76,14.05 52.39,15.52 50.65,15.52 L50.65,15.52 Z M38,6.19 C34.79,6.19 32.17,8.63 32.17,12 C32.17,15.34 34.79,17.81 38,17.81 C41.21,17.81 43.83,15.35 43.83,12 C43.83,8.63 41.21,6.19 38,6.19 L38,6.19 Z M38,15.52 C36.24,15.52 34.72,14.07 34.72,12 C34.72,9.91 36.24,8.48 38,8.48 C39.76,8.48 41.28,9.91 41.28,12 C41.28,14.07 39.76,15.52 38,15.52 L38,15.52 Z M58,0.24 L60.51,0.24 L60.51,17.81 L58,17.81 L58,0.24 Z M68.26,15.52 C66.96,15.52 66.04,14.93 65.44,13.76 L73.21,10.55 L72.95,9.89 C72.47,8.59 70.99,6.19 67.98,6.19 C64.99,6.19 62.5,8.54 62.5,12 C62.5,15.26 64.96,17.81 68.26,17.81 C70.92,17.81 72.46,16.18 73.1,15.24 L71.12,13.92 C70.46,14.88 69.56,15.52 68.26,15.52 L68.26,15.52 Z M68.08,8.37 C69.11,8.37 69.99,8.9 70.28,9.65 L65.03,11.82 C65.03,9.38 66.76,8.37 68.08,8.37 L68.08,8.37 Z" id="Shape" sketch:type="MSShapeGroup"></path>
        </g>
    </g>
</svg>