<svg viewBox="0 0 48 28" version="1.1" xmlns="http://www.w3.org/2000/svg"><defs><filter id="d"><feGaussianBlur in="SourceAlpha" stdDeviation=".75"/><feComponentTransfer><feFuncA type="linear" slope="0.5"/></feComponentTransfer><feOffset dx="0" dy="1"/><feMerge><feMergeNode/><feMergeNode in="SourceGraphic"/></feMerge></filter><linearGradient x1="50.0011999%" y1="-0.00239702745%" x2="50.0012042%" y2="99.032403%" id="a"><stop stop-color="#000" stop-opacity="0" offset="0%"/><stop stop-color="#000" stop-opacity="0.02" offset="80%"/><stop stop-color="#000" stop-opacity="0.04" offset="100%"/></linearGradient><linearGradient x1="50.0011999%" y1="-0.00239702745%" x2="50.0012043%" y2="99.999603%" id="b"><stop stop-color="#fff" stop-opacity="0.12" offset="0%"/><stop stop-color="#fff" stop-opacity="0.06" offset="20%"/><stop stop-color="#fff" stop-opacity="0" offset="100%"/></linearGradient></defs><g transform="translate(1, 0)"><path d="M0,12.501 C0,7.765 3.83,4.001 8.647,4.001 L33.354,4.001 C38.17,4.001 42,7.765 42,12.501 L42,12.501 C42,17.237 38.17,21.001 33.354,21.001 L8.647,21.001 C3.83,21.001 0,17.237 0,12.501 L0,12.501 L0,12.501 L0,12.501 Z" opacity="0.5" fill="#515151"/><g transform="translate(21, 0)"><circle transform="translate(0, 0.5)" cx="12.5" cy="12.5" r="12.5" fill="#515151" filter="url(#d)"/><path d="M12.5,0 C5.597,0 0,5.596 0,12.5 C0,19.404 5.597,25 12.5,25 C19.403,25 25,19.403 25,12.5 C25,5.597 19.404,0 12.5,0 L12.5,0 Z M0.5,12.5 C0.5,5.873 5.873,0.5 12.5,0.5 C19.127,0.5 24.5,5.873 24.5,12.5 C24.5,19.127 19.126,24.5 12.5,24.5 C5.874,24.5 0.5,19.127 0.5,12.5 L0.5,12.5 Z" fill="url(#a)"/><path d="M12.5,0 C5.597,0 0,5.596 0,12.5 C0,19.404 5.597,25 12.5,25 C19.403,25 25,19.403 25,12.5 C25,5.597 19.404,0 12.5,0 L12.5,0 Z M0.5,12.5 C0.5,5.873 5.873,0.5 12.5,0.5 C19.127,0.5 24.5,5.873 24.5,12.5 C24.5,19.127 19.126,24.5 12.5,24.5 C5.874,24.5 0.5,19.127 0.5,12.5 L0.5,12.5 Z" fill="url(#b)"/></g><path d="M33.5,6.001 C34.362,6.001 35.188,6.343 35.798,6.953 C36.407,7.562 36.75,8.389 36.75,9.251 C36.75,10.113 36.408,10.939 35.798,11.549 C35.188,12.159 34.361,12.501 33.5,12.501 C32.639,12.501 31.812,12.159 31.202,11.549 C30.592,10.939 30.25,10.113 30.25,9.251 C30.25,8.389 30.592,7.563 31.202,6.953 C31.812,6.343 32.638,6.001 33.5,6.001 L33.5,6.001 Z M33.5,14.126 C37.091,14.126 40,15.58 40,17.376 L40,19.001 L27,19.001 L27,17.376 C27,15.58 29.909,14.126 33.5,14.126 L33.5,14.126 Z" fill="#fff"/></g></svg>