<svg viewBox="0 0 48 28" version="1.1" xmlns="http://www.w3.org/2000/svg"><defs><filter id="d"><feGaussianBlur in="SourceAlpha" stdDeviation=".75"/><feComponentTransfer><feFuncA type="linear" slope="0.5"/></feComponentTransfer><feOffset dx="0" dy="1"/><feMerge><feMergeNode/><feMergeNode in="SourceGraphic"/></feMerge></filter><linearGradient x1="49.9985459%" y1="-0.01326896%" x2="49.9985459%" y2="99.008331%" id="a"><stop stop-color="#000" stop-opacity="0" offset="0%"/><stop stop-color="#000" stop-opacity="0.02" offset="80%"/><stop stop-color="#000" stop-opacity="0.04" offset="100%"/></linearGradient><linearGradient x1="50.0048%" y1="-0.0176%" x2="50.0048%" y2="99.9824%" id="b"><stop stop-color="#fff" stop-opacity="0.12" offset="0%"/><stop stop-color="#fff" stop-opacity="0.06" offset="20%"/><stop stop-color="#fff" stop-opacity="0" offset="100%"/></linearGradient></defs><g transform="translate(1, -0.5)"><path d="M46,13 C46,17.736 42.17,21.5 37.354,21.5 L12.647,21.5 C7.83,21.5 4,17.736 4,13 L4,13 C4,8.264 7.83,4.5 12.647,4.5 L37.354,4.5 C42.17,4.5 46,8.264 46,13 L46,13 L46,13 L46,13 Z" id="track_1_" fill-opacity="0.26" fill="#221F1F"/><circle transform="translate(0, 0.5)" cx="12.5" cy="12.5" r="12.5" fill="#fff" filter="url(#d)"/><path d="M25,13 C25,6.097 19.404,0.5 12.5,0.5 C5.597,0.5 0,6.097 0,13 C0,19.904 5.597,25.5 12.5,25.5 C19.404,25.5 25,19.904 25,13 L25,13 Z M12.5,1 C19.127,1 24.5,6.373 24.5,13 C24.5,19.627 19.127,25 12.5,25 C5.873,25 0.5,19.627 0.5,13 C0.5,6.373 5.873,1 12.5,1 L12.5,1 Z" fill="url(#a)"/><path d="M25,13 C25,6.097 19.404,0.5 12.5,0.5 C5.597,0.5 0,6.097 0,13 C0,19.904 5.597,25.5 12.5,25.5 C19.404,25.5 25,19.904 25,13 L25,13 Z M12.5,1 C19.127,1 24.5,6.373 24.5,13 C24.5,19.627 19.127,25 12.5,25 C5.873,25 0.5,19.627 0.5,13 C0.5,6.373 5.873,1 12.5,1 L12.5,1 Z" fill="url(#b)"/><path d="M16.335,16.504 C16.166,15.983 15.679,15.6 15.1,15.6 L14.45,15.6 L14.45,13.65 C14.45,13.478 14.381,13.313 14.26,13.191 C14.138,13.068 13.973,13 13.8,13 L9.9,13 L9.9,11.7 L11.2,11.7 C11.373,11.7 11.537,11.631 11.66,11.51 C11.781,11.388 11.849,11.223 11.849,11.05 L11.849,9.75 L13.15,9.75 C13.494,9.75 13.826,9.613 14.069,9.369 C14.312,9.125 14.45,8.795 14.45,8.45 L14.45,8.183 C16.354,8.95 17.7,10.815 17.7,12.999 C17.7,14.352 17.18,15.58 16.335,16.504 L16.335,16.504 Z M11.85,18.154 C9.283,17.836 7.3,15.652 7.3,13 C7.3,12.597 7.352,12.207 7.437,11.836 L10.55,14.95 L10.55,15.6 C10.55,15.946 10.688,16.276 10.931,16.52 C11.174,16.764 11.506,16.9 11.85,16.9 L11.85,18.154 Z M12.5,6.5 C11.646,6.5 10.801,6.668 10.013,6.995 C9.225,7.322 8.508,7.801 7.905,8.404 C6.686,9.623 6,11.276 6,13 C6,14.725 6.686,16.377 7.904,17.596 C8.508,18.2 9.224,18.679 10.012,19.006 C10.8,19.332 11.646,19.5 12.499,19.5 C14.224,19.5 15.876,18.815 17.095,17.596 C18.315,16.377 19,14.725 19,13 C19,12.146 18.832,11.301 18.506,10.513 C18.179,9.724 17.699,9.008 17.096,8.404 C16.493,7.8 15.776,7.321 14.988,6.995 C14.2,6.669 13.354,6.5 12.5,6.5 L12.5,6.5 L12.5,6.5 Z" fill="#515151" transform="translate(12.5, 13) scale(-1, 1) translate(-12.5, -13) "/></g></svg>